# xmcd CD database file
#
# Track frame offsets:
#	150
#	31350
#	49912
#	67537
#	83812
#	100312
#	121650
#	142500
#	160988
#
# Disc length: 2474 seconds
#
# Revision: 0
# Processed by: cddbd v1.5.2PL0 Copyright (c) Steve Scherf et al.
# Submitted via: CDex 1.51
#
DISCID=6309a809
DTITLE=Juliius Chitta - Frank Mackel - Paul Vass - Willi Horvath - the Jazzengers
DYEAR=2005
DGENRE=Jazz
TTITLE0=Song for my Father (Horace Silver)
TTITLE1=Summertime (George Gershwin)
TTITLE2=Bernie's Tune (Bernie Miller)
TTITLE3=Over The Rainbow (E-Y.Harburg)
TTITLE4=Bouncin' with Bud (Bud Powell)
TTITLE5=A Night In Tunisia (Dizzie Gellespie)
TTITLE6=Herrman Blues (Steve Herrman)
TTITLE7=There is No Greater Love (Isham Jones)
TTITLE8=Tenderly (Walter Gross)
EXTD=YEAR: 2005
EXTT0=
EXTT1=
EXTT2=
EXTT3=
EXTT4=
EXTT5=
EXTT6=
EXTT7=
EXTT8=
PLAYORDER=
